<svg width="337" height="408" viewBox="0 0 337 408" xmlns="http://www.w3.org/2000/svg"><title>logoRedradix</title><g fill="#A50000" fill-rule="evenodd"><path d="M98.6 174.268C65.573 162.786 33.455 151.576.783 140.206c11.45-27.405 22.63-54.135 34.193-81.82 31.262 14.512 62.232 28.874 94.53 43.87C125.924 67.65 122.438 34.132 118.904 0H221.41c-4.35 34.696-8.67 69.11-13.133 104.734 31.545-15.62 62.202-30.79 93.686-46.35 11.39 27.194 22.65 54.075 34.253 81.802-33.508 11.108-66.34 21.996-100.292 33.266 25.21 26.86 49.582 52.815 74.57 79.454-25.43 19.51-50.41 38.705-75.97 58.324-21.734-30.416-43.298-60.54-65.616-91.76-23.144 31.724-45.836 62.855-68.95 94.53-24.705-20.767-48.827-41.03-73.472-61.77 24.112-26.064 47.84-51.716 72.113-77.962zM18.98 371.12L16.654 366H2.076v10.4H5.41v19.12H2V406h21.945v-10.48h-3.878v-8.242c0-7.038 3.957-8.88 10.933-8.88V364c-7.988 0-10.002 3.28-12.02 7.12zM56.977 396.26c-6.76 0-7.807-4.342-8.288-6.473H74.03c1.688-4.498.805-10.577-.16-13.34C71.537 369.816 64.217 365 54.64 365 42.493 365 33 372.66 33 385.604 33 400.76 44.265 407 54.242 407c8.367 0 14.804-1.816 20.758-6.87l-6.758-7.66c-4.345 3.55-8.532 3.79-11.265 3.79zm-1.85-20.603c5.148 0 5.87 3.316 5.95 6.317h-12.15c.164-1.978 1.29-6.317 6.2-6.317zM121.136 346h-20.033v10.446h3.7v11.898c-1.53-.965-4.423-3.055-10.136-3.055-9.895 0-18.667 7.958-18.667 20.49C76 396.957 83.322 407 94.667 407c5.55 0 9.092-2.73 10.135-3.695l1.368 2.974H125v-10.45h-3.864V346zM99.09 395.668c-3.54 0-5.793-5.066-5.793-9.89 0-6.107 2.334-10.044 5.713-10.044 3.06 0 5.792 4.178 5.792 9.646.323 6.35-2.573 10.288-5.713 10.288zM144.98 371.12l-2.327-5.12h-14.577v10.4h3.337v19.12H128V406h21.945v-10.48h-3.878v-8.242c0-7.038 3.957-8.88 10.933-8.88V364c-7.988 0-10.002 3.28-12.02 7.12zM202.16 380.54c0-12.93-12.183-16.54-21.868-16.54-7.426 0-14.365 3.773-17.596 5.697l3.39 9.317c3.064-1.685 7.264-3.697 12.025-3.697 4.36 0 7.667.883 7.667 4.498v2.81c-.403-.483-3.226-2.81-7.987-2.81-9.12 0-16.79 5.702-16.79 14.775 0 9.312 8.232 13.41 15.9 13.41 2.905 0 7.906-1.045 10.895-5.143l1.935 3.616H207v-10.277h-4.843V380.54h.003zm-16.38 14.372c-.725 1.203-2.744 2.652-5.165 2.652-2.42 0-4.276-1.528-4.276-3.778 0-2.49 1.452-4.255 4.678-4.255 3.39 0 4.522 1.93 4.762 2.33v3.052zM254.138 346h-20.035v10.446h3.7v11.898c-1.53-.965-4.423-3.055-10.136-3.055-9.895 0-18.667 7.958-18.667 20.49 0 11.176 7.322 21.22 18.667 21.22 5.55 0 9.092-2.73 10.135-3.695l1.368 2.974H258v-10.45h-3.862V346zm-22.047 49.668c-3.54 0-5.793-5.066-5.793-9.89 0-6.107 2.334-10.044 5.713-10.044 3.06 0 5.792 4.178 5.792 9.646.325 6.35-2.57 10.288-5.71 10.288zM272.423 364c5.536 0 8.577-3.854 8.577-8.46 0-3.85-3.197-8.54-8.577-8.54-5.458 0-8.423 4.69-8.423 8.54 0 4.023 3.507 8.46 8.423 8.46zM280.057 367H261v10.4h3.447v19.12H261V407h23v-10.48h-3.943V367zM332.23 397.078l-10.105-11.518 8.505-8.56h5.294v-10h-20.456v10h5.377l-6.02 6.08-5.612-6.08h3.768v-10H287v10h3.606l9.945 10.88-8.18 9.198H287V407h20.53v-9.922h-5.215l5.778-6.48 6.09 6.48h-3.77V407H336v-9.922h-3.77z"/></g></svg>